<svg id="svg" version="1.1" xmlns="http://www.w3.org/2000/svg" xmlns:xlink="http://www.w3.org/1999/xlink" width="400" height="340" viewBox="0, 0, 400,340"><g id="svgg"><path id="path0" d="M125.216 11.408 C 124.587 11.681,123.721 11.905,123.292 11.905 C 121.929 11.905,119.668 13.362,117.196 15.836 C 113.246 19.787,112.644 20.862,111.203 26.531 C 111.037 27.185,110.897 40.360,110.892 55.807 C 110.883 87.928,110.700 85.854,113.797 88.736 C 114.814 89.683,115.646 90.544,115.646 90.649 C 115.646 90.965,118.744 93.878,119.079 93.878 C 119.249 93.878,119.388 94.016,119.388 94.185 C 119.388 94.355,120.612 95.756,122.109 97.300 C 123.605 98.843,124.830 100.235,124.830 100.393 C 124.830 100.551,124.985 100.680,125.174 100.680 C 125.583 100.680,133.333 108.486,133.333 108.898 C 133.333 109.055,133.507 109.184,133.719 109.184 C 134.226 109.184,151.361 126.313,151.361 126.820 C 151.361 127.035,151.489 127.211,151.646 127.211 C 151.922 127.211,157.757 132.906,160.228 135.587 C 161.757 137.246,165.829 140.934,166.307 141.093 C 166.505 141.159,166.667 141.430,166.667 141.695 C 166.667 141.960,166.820 142.177,167.007 142.177 C 167.194 142.177,167.347 142.330,167.347 142.517 C 167.347 142.938,168.215 143.821,169.593 144.802 C 170.168 145.212,170.986 146.053,171.409 146.671 C 171.833 147.289,172.852 148.253,173.674 148.812 C 174.496 149.372,175.169 150.003,175.169 150.215 C 175.170 150.764,177.879 153.401,178.441 153.401 C 178.700 153.401,178.912 153.545,178.912 153.720 C 178.912 153.896,179.906 155.059,181.122 156.305 C 182.338 157.552,183.333 158.763,183.333 158.996 C 183.333 159.230,183.756 160.019,184.274 160.748 C 187.887 165.845,188.387 171.692,185.609 176.361 C 185.386 176.735,184.696 177.921,184.074 178.996 C 183.446 180.082,181.217 182.691,179.057 184.867 C 176.919 187.021,175.170 188.838,175.170 188.906 C 175.170 189.118,156.751 207.482,156.516 207.505 C 156.393 207.516,153.997 209.895,151.190 212.791 C 143.411 220.818,128.612 235.714,128.418 235.714 C 127.985 235.714,113.439 250.760,111.582 253.128 L 110.863 254.046 110.965 283.911 L 111.067 313.776 112.007 316.156 C 112.525 317.466,113.096 318.588,113.277 318.651 C 113.458 318.713,113.605 318.889,113.605 319.041 C 113.605 319.563,117.963 324.490,118.425 324.490 C 118.597 324.490,119.534 325.070,120.508 325.779 C 123.358 327.853,124.143 328.061,129.116 328.061 C 131.975 328.061,133.896 327.909,134.474 327.636 C 134.969 327.402,135.795 327.020,136.310 326.786 C 136.824 326.552,137.398 326.241,137.585 326.095 C 137.772 325.949,138.767 325.218,139.796 324.470 C 141.349 323.342,160.402 304.633,169.272 295.527 C 170.611 294.152,173.289 291.472,175.224 289.571 C 177.159 287.670,179.060 285.757,179.450 285.319 C 179.839 284.882,180.758 283.978,181.491 283.310 C 182.223 282.643,183.070 281.801,183.372 281.440 C 183.673 281.078,184.745 279.998,185.753 279.039 C 187.769 277.121,188.999 275.906,190.606 274.244 C 191.189 273.641,194.958 269.814,198.981 265.740 C 203.004 261.666,206.697 257.798,207.188 257.143 C 207.679 256.488,209.094 254.891,210.333 253.594 C 211.572 252.297,212.585 251.111,212.585 250.958 C 212.585 250.805,212.752 250.680,212.957 250.680 C 213.161 250.680,214.730 249.202,216.443 247.395 C 220.881 242.715,239.726 223.854,243.458 220.357 C 245.185 218.738,246.599 217.302,246.599 217.164 C 246.599 216.971,267.250 196.317,269.881 193.878 C 270.184 193.597,270.936 192.832,271.551 192.177 C 272.167 191.522,273.042 190.663,273.495 190.268 C 276.625 187.542,284.354 178.743,284.354 177.906 C 284.354 177.452,285.425 175.116,285.921 174.490 C 286.890 173.265,286.692 161.705,285.697 161.389 C 284.955 161.154,283.704 159.980,282.317 158.218 C 281.851 157.627,281.314 157.143,281.122 157.143 C 280.931 157.143,280.394 156.651,279.928 156.050 C 279.463 155.448,278.546 154.459,277.891 153.851 C 277.236 153.242,276.471 152.501,276.190 152.203 C 275.910 151.905,274.671 150.636,273.437 149.385 C 272.204 148.133,271.101 146.848,270.988 146.528 C 270.874 146.209,270.184 145.570,269.454 145.110 C 268.724 144.649,267.810 143.735,267.423 143.079 C 267.036 142.423,266.286 141.616,265.758 141.284 C 265.229 140.952,264.016 139.908,263.063 138.963 C 262.110 138.018,260.809 136.747,260.172 136.139 C 259.535 135.530,258.554 134.508,257.993 133.867 C 257.432 133.226,256.781 132.690,256.548 132.677 C 256.314 132.664,256.122 132.501,256.122 132.316 C 256.122 131.986,251.846 127.418,248.476 124.150 C 247.994 123.682,247.084 122.764,246.453 122.109 C 245.821 121.454,244.793 120.423,244.166 119.818 C 243.540 119.213,242.770 118.448,242.456 118.117 C 241.700 117.322,240.889 116.667,240.661 116.667 C 240.422 116.667,239.116 115.363,239.116 115.125 C 239.116 114.904,237.116 112.925,236.893 112.925 C 236.645 112.925,235.374 111.591,235.374 111.331 C 235.374 111.028,232.223 108.167,231.888 108.165 C 231.747 108.164,231.633 107.992,231.633 107.784 C 231.633 107.575,230.599 106.354,229.337 105.071 C 228.074 103.788,226.781 102.466,226.463 102.134 C 224.732 100.326,221.749 97.336,220.320 95.977 C 219.992 95.664,219.217 94.872,218.599 94.218 C 217.982 93.563,217.145 92.788,216.740 92.495 C 216.336 92.203,215.540 91.323,214.973 90.540 C 214.405 89.756,213.729 89.116,213.469 89.116 C 213.209 89.116,212.559 88.569,212.025 87.901 C 211.491 87.232,210.174 85.770,209.099 84.650 C 208.023 83.531,207.136 82.432,207.128 82.209 C 207.121 81.985,206.638 81.420,206.056 80.952 C 205.475 80.485,204.754 79.801,204.455 79.434 C 203.424 78.167,199.985 74.636,192.682 67.347 C 185.794 60.472,182.332 57.006,164.903 39.536 C 158.471 33.087,145.494 20.096,143.027 17.635 C 140.373 14.988,138.171 13.129,137.202 12.720 C 133.223 11.039,127.506 10.414,125.216 11.408 " stroke="none" fill="#09b4e2" fill-rule="evenodd"></path><path id="path1" d="M124.991 9.286 C 124.333 9.720,123.213 10.204,119.984 11.451 C 119.096 11.794,118.369 12.190,118.369 12.330 C 118.368 12.470,118.176 12.599,117.942 12.615 C 117.708 12.632,116.752 13.531,115.816 14.613 C 114.881 15.695,113.771 16.779,113.350 17.021 C 112.929 17.264,112.585 17.653,112.585 17.886 C 112.585 18.120,112.470 18.362,112.330 18.424 C 112.014 18.565,111.272 20.111,109.827 23.639 L 108.713 26.361 108.523 51.871 C 108.418 65.969,108.197 77.609,108.028 77.891 C 107.471 78.820,106.350 79.932,105.970 79.932 C 105.504 79.932,101.293 76.156,98.980 73.664 C 98.512 73.160,91.133 65.755,82.583 57.207 C 74.032 48.660,66.838 41.465,66.596 41.218 C 66.354 40.972,63.861 38.505,61.054 35.738 C 58.248 32.970,54.714 29.422,53.201 27.853 C 51.687 26.284,48.932 23.526,47.078 21.725 C 45.224 19.924,43.369 18.087,42.955 17.643 C 42.019 16.639,40.871 15.646,40.646 15.646 C 40.335 15.646,39.116 14.291,39.116 13.946 C 39.116 13.759,38.899 13.605,38.634 13.605 C 38.369 13.605,38.099 13.448,38.035 13.256 C 37.971 13.063,36.543 12.425,34.861 11.836 C 28.293 9.540,19.143 11.145,16.806 15.003 C 16.636 15.284,15.884 15.964,15.136 16.515 C 14.388 17.066,13.563 17.802,13.304 18.151 C 12.662 19.014,10.398 23.761,9.469 26.190 C 8.720 28.148,8.625 309.417,9.372 312.355 C 9.996 314.811,12.742 320.748,13.254 320.748 C 13.447 320.748,13.612 320.940,13.620 321.173 C 13.628 321.407,14.111 321.981,14.695 322.449 C 15.278 322.917,16.021 323.551,16.345 323.858 C 17.914 325.346,22.258 327.872,23.591 328.072 C 28.925 328.872,35.604 327.834,37.801 325.865 C 38.851 324.923,39.424 324.490,39.615 324.490 C 40.115 324.490,48.781 315.983,61.453 303.054 C 64.291 300.158,70.423 294.039,75.079 289.456 C 79.734 284.872,86.978 277.593,91.177 273.279 C 95.375 268.965,99.804 264.602,101.020 263.585 C 102.236 262.567,103.308 261.650,103.401 261.547 C 104.987 259.793,107.143 259.384,107.143 260.837 C 107.143 261.050,107.280 261.224,107.447 261.224 C 108.203 261.224,108.307 263.899,108.486 287.755 L 108.676 313.095 109.440 314.692 C 109.860 315.571,110.204 316.381,110.204 316.492 C 110.204 318.608,117.304 327.211,119.050 327.211 C 119.236 327.211,119.388 327.343,119.388 327.504 C 119.388 328.208,123.241 329.237,126.618 329.435 C 133.414 329.835,137.826 328.817,140.816 326.159 C 141.471 325.577,142.389 324.900,142.857 324.654 C 143.325 324.408,143.937 323.860,144.218 323.435 C 144.498 323.010,145.155 322.270,145.677 321.791 C 146.819 320.741,148.486 319.080,149.698 317.786 C 150.186 317.264,150.878 316.607,151.236 316.327 C 151.593 316.046,152.248 315.271,152.691 314.605 C 153.135 313.938,153.922 313.149,154.441 312.851 C 154.959 312.554,155.660 311.874,155.997 311.342 C 156.334 310.810,157.074 309.991,157.642 309.524 C 158.787 308.580,160.356 307.002,161.395 305.750 C 161.769 305.299,162.482 304.668,162.979 304.348 C 163.477 304.028,164.318 303.152,164.850 302.401 C 165.381 301.650,165.985 301.032,166.192 301.028 C 166.399 301.024,167.087 300.469,167.723 299.795 C 168.358 299.121,169.400 298.088,170.039 297.499 C 170.678 296.910,171.597 295.976,172.080 295.423 C 172.564 294.871,173.394 294.029,173.926 293.553 C 174.457 293.077,175.299 292.257,175.796 291.730 C 176.635 290.843,177.167 290.309,179.677 287.836 C 180.191 287.330,180.613 286.760,180.614 286.570 C 180.614 286.380,181.456 285.575,182.484 284.781 C 183.512 283.987,184.354 283.133,184.354 282.884 C 184.354 282.635,184.922 281.984,185.616 281.437 C 186.311 280.890,187.344 279.923,187.912 279.288 C 188.481 278.653,189.376 277.735,189.902 277.247 C 190.429 276.759,191.312 275.901,191.865 275.340 C 193.301 273.884,195.835 271.440,199.626 267.857 C 200.022 267.483,200.872 266.641,201.515 265.986 C 205.082 262.357,206.361 261.224,206.894 261.224 C 207.220 261.224,208.136 260.383,208.930 259.355 C 209.733 258.316,210.647 257.485,210.988 257.484 C 211.403 257.483,211.865 256.889,212.413 255.648 C 213.000 254.323,213.632 253.541,214.691 252.830 C 215.497 252.289,216.353 251.438,216.592 250.939 C 216.832 250.440,217.444 249.721,217.953 249.340 C 218.461 248.959,219.062 248.492,219.288 248.303 C 219.514 248.114,219.859 247.959,220.054 247.959 C 220.249 247.959,220.408 247.730,220.408 247.449 C 220.408 246.818,222.962 244.218,223.582 244.218 C 223.831 244.218,224.252 243.801,224.517 243.293 C 225.098 242.180,226.063 241.156,226.531 241.156 C 226.718 241.156,226.871 241.003,226.871 240.816 C 226.871 240.629,227.024 240.476,227.211 240.476 C 227.596 240.476,228.912 239.241,228.912 238.879 C 228.912 238.542,230.685 236.735,231.016 236.735 C 231.422 236.735,232.415 235.655,232.946 234.636 C 233.200 234.148,233.808 233.540,234.296 233.286 C 235.444 232.687,236.103 232.015,236.735 230.799 C 237.015 230.259,237.867 229.440,238.627 228.980 C 239.387 228.519,240.205 227.701,240.444 227.160 C 240.683 226.619,241.439 225.767,242.123 225.265 C 243.409 224.323,244.294 223.410,245.326 221.962 C 245.655 221.501,246.338 220.924,246.844 220.680 C 247.351 220.437,248.203 219.585,248.738 218.787 C 249.274 217.989,250.235 216.981,250.873 216.547 C 251.511 216.114,252.495 215.121,253.060 214.342 C 253.624 213.563,254.302 212.925,254.565 212.925 C 254.829 212.925,255.478 212.441,256.009 211.849 C 256.539 211.256,258.657 209.075,260.715 207.002 C 262.773 204.928,264.726 202.814,265.055 202.303 C 265.384 201.792,266.111 201.138,266.672 200.848 C 267.232 200.558,268.065 199.729,268.522 199.005 C 268.979 198.281,269.964 197.252,270.712 196.718 C 271.459 196.185,272.375 195.213,272.747 194.558 C 273.118 193.903,273.931 193.096,274.551 192.764 C 275.172 192.432,276.061 191.590,276.526 190.893 C 277.500 189.434,278.511 188.442,279.049 188.420 C 279.254 188.411,279.683 188.067,280.003 187.654 C 281.664 185.510,282.403 184.694,282.683 184.694 C 283.008 184.694,284.354 183.459,284.354 183.160 C 284.354 182.826,286.449 180.099,286.900 179.847 C 287.889 179.292,289.893 171.853,289.538 170.051 C 289.517 169.948,289.393 168.111,289.262 165.969 C 288.991 161.542,288.480 160.158,286.587 158.714 C 285.920 158.205,285.374 157.609,285.374 157.389 C 285.374 156.882,282.625 154.423,282.058 154.422 C 281.824 154.422,281.633 154.192,281.633 153.912 C 281.633 153.298,279.088 150.682,278.486 150.676 C 278.253 150.674,277.779 150.084,277.435 149.365 C 277.082 148.628,276.240 147.701,275.507 147.243 C 274.792 146.795,273.943 145.987,273.621 145.446 C 272.903 144.242,271.885 143.197,271.429 143.197 C 271.241 143.197,271.088 143.055,271.088 142.880 C 271.088 142.706,270.782 142.466,270.408 142.347 C 270.034 142.228,269.728 141.900,269.728 141.617 C 269.728 141.019,267.066 138.435,266.450 138.435 C 266.220 138.435,265.941 138.147,265.829 137.796 C 265.559 136.944,264.472 135.714,263.991 135.714 C 263.779 135.714,263.605 135.564,263.605 135.381 C 263.605 135.197,263.223 134.951,262.755 134.834 C 262.287 134.716,261.905 134.442,261.905 134.224 C 261.905 133.584,259.911 131.352,258.913 130.875 C 258.407 130.632,257.695 129.880,257.331 129.202 C 256.967 128.524,256.074 127.607,255.347 127.165 C 254.620 126.722,253.788 125.901,253.497 125.340 C 252.874 124.135,251.091 122.449,250.441 122.449 C 250.189 122.449,249.833 122.053,249.649 121.570 C 249.227 120.461,247.656 118.873,246.671 118.560 C 246.257 118.429,245.918 118.126,245.918 117.886 C 245.918 117.227,243.620 115.000,242.703 114.769 C 242.251 114.656,241.720 114.145,241.498 113.609 C 241.055 112.539,239.874 111.325,238.710 110.745 C 238.286 110.534,237.777 110.036,237.578 109.638 C 237.009 108.496,236.329 107.791,234.974 106.935 C 234.281 106.497,233.455 105.594,233.139 104.929 C 232.788 104.190,231.985 103.379,231.078 102.847 C 230.261 102.368,229.592 101.774,229.592 101.527 C 229.592 100.896,227.331 98.639,226.698 98.639 C 226.410 98.639,226.042 98.295,225.881 97.874 C 225.615 97.181,224.463 95.924,222.364 94.040 C 221.943 93.662,221.293 92.926,220.918 92.405 C 220.544 91.884,219.666 91.133,218.966 90.736 C 218.267 90.340,217.596 89.698,217.476 89.310 C 217.195 88.404,215.382 86.767,214.381 86.515 C 213.954 86.408,213.605 86.084,213.605 85.795 C 213.605 84.886,210.958 81.633,210.218 81.633 C 210.023 81.633,209.864 81.432,209.864 81.186 C 209.864 80.521,208.125 78.993,207.071 78.732 C 206.564 78.607,205.621 77.860,204.976 77.072 C 204.330 76.284,203.253 75.266,202.583 74.809 C 201.913 74.353,201.364 73.806,201.363 73.594 C 201.360 73.091,198.674 70.408,198.172 70.408 C 197.959 70.408,197.576 69.937,197.321 69.360 C 197.066 68.784,196.242 67.867,195.490 67.322 C 194.738 66.778,193.669 65.714,193.113 64.958 C 192.557 64.203,191.660 63.355,191.118 63.075 C 190.576 62.795,189.750 61.996,189.282 61.300 C 188.814 60.604,187.744 59.575,186.903 59.014 C 186.063 58.452,185.375 57.815,185.375 57.597 C 185.374 57.163,182.396 54.422,181.925 54.422 C 181.764 54.422,181.633 54.249,181.633 54.037 C 181.633 53.536,178.777 50.680,178.276 50.680 C 178.064 50.680,177.891 50.528,177.891 50.343 C 177.891 50.033,173.504 45.303,171.737 43.707 C 171.323 43.333,170.586 42.600,170.101 42.078 C 169.615 41.556,168.529 40.449,167.687 39.618 C 166.845 38.788,166.003 37.931,165.816 37.714 C 165.629 37.497,164.787 36.658,163.946 35.851 C 163.104 35.043,162.109 34.033,161.735 33.606 C 161.361 33.179,160.525 32.369,159.879 31.806 C 159.232 31.243,157.868 29.902,156.849 28.827 C 155.829 27.751,154.789 26.871,154.538 26.871 C 154.287 26.871,154.082 26.715,154.082 26.525 C 154.082 26.064,142.762 14.626,142.307 14.626 C 142.111 14.626,141.747 14.244,141.498 13.778 C 140.921 12.700,140.193 12.236,137.245 11.067 C 135.935 10.547,134.296 9.835,133.602 9.483 C 132.048 8.696,126.092 8.559,124.991 9.286 M133.551 11.577 C 137.842 12.727,138.582 13.200,143.027 17.635 C 145.494 20.096,158.471 33.087,164.903 39.536 C 182.332 57.006,185.794 60.472,192.682 67.347 C 199.985 74.636,203.424 78.167,204.455 79.434 C 204.754 79.801,205.475 80.485,206.056 80.952 C 206.638 81.420,207.121 81.985,207.128 82.209 C 207.136 82.432,208.023 83.531,209.099 84.650 C 210.174 85.770,211.491 87.232,212.025 87.901 C 212.559 88.569,213.209 89.116,213.469 89.116 C 213.729 89.116,214.405 89.756,214.973 90.540 C 215.540 91.323,216.336 92.203,216.740 92.495 C 217.145 92.788,217.982 93.563,218.599 94.218 C 219.217 94.872,219.992 95.664,220.320 95.977 C 221.749 97.336,224.732 100.326,226.463 102.134 C 226.781 102.466,228.074 103.788,229.337 105.071 C 230.599 106.354,231.633 107.575,231.633 107.784 C 231.633 107.992,231.747 108.164,231.888 108.165 C 232.223 108.167,235.374 111.028,235.374 111.331 C 235.374 111.591,236.645 112.925,236.893 112.925 C 237.116 112.925,239.116 114.904,239.116 115.125 C 239.116 115.363,240.422 116.667,240.661 116.667 C 240.889 116.667,241.700 117.322,242.456 118.117 C 242.770 118.448,243.540 119.213,244.166 119.818 C 244.793 120.423,245.821 121.454,246.453 122.109 C 247.084 122.764,247.994 123.682,248.476 124.150 C 251.846 127.418,256.122 131.986,256.122 132.316 C 256.122 132.501,256.314 132.664,256.548 132.677 C 256.781 132.690,257.432 133.226,257.993 133.867 C 258.554 134.508,259.535 135.530,260.172 136.139 C 260.809 136.747,262.110 138.018,263.063 138.963 C 264.016 139.908,265.229 140.952,265.758 141.284 C 266.286 141.616,267.036 142.423,267.423 143.079 C 267.810 143.735,268.724 144.649,269.454 145.110 C 270.184 145.570,270.874 146.209,270.988 146.528 C 271.101 146.848,272.204 148.133,273.437 149.385 C 274.671 150.636,275.910 151.905,276.190 152.203 C 276.471 152.501,277.236 153.242,277.891 153.851 C 278.546 154.459,279.463 155.448,279.928 156.050 C 280.394 156.651,280.931 157.143,281.122 157.143 C 281.314 157.143,281.851 157.627,282.317 158.218 C 283.704 159.980,284.955 161.154,285.697 161.389 C 286.692 161.705,286.890 173.265,285.921 174.490 C 285.425 175.116,284.354 177.452,284.354 177.906 C 284.354 178.743,276.625 187.542,273.495 190.268 C 273.042 190.663,272.167 191.522,271.551 192.177 C 270.936 192.832,270.184 193.597,269.881 193.878 C 267.250 196.317,246.599 216.971,246.599 217.164 C 246.599 217.302,245.185 218.738,243.458 220.357 C 239.726 223.854,220.881 242.715,216.443 247.395 C 214.730 249.202,213.161 250.680,212.957 250.680 C 212.752 250.680,212.585 250.805,212.585 250.958 C 212.585 251.111,211.572 252.297,210.333 253.594 C 209.094 254.891,207.679 256.488,207.188 257.143 C 206.697 257.798,203.004 261.666,198.981 265.740 C 194.958 269.814,191.189 273.641,190.606 274.244 C 188.999 275.906,187.769 277.121,185.753 279.039 C 184.745 279.998,183.673 281.078,183.372 281.440 C 183.070 281.801,182.223 282.643,181.491 283.310 C 180.758 283.978,179.839 284.882,179.450 285.319 C 179.060 285.757,177.159 287.670,175.224 289.571 C 173.289 291.472,170.611 294.152,169.272 295.527 C 160.402 304.633,141.349 323.342,139.796 324.470 C 138.767 325.218,137.772 325.949,137.585 326.095 C 137.398 326.241,136.824 326.552,136.310 326.786 C 135.795 327.020,134.969 327.402,134.474 327.636 C 133.896 327.909,131.975 328.061,129.116 328.061 C 124.143 328.061,123.358 327.853,120.508 325.779 C 119.534 325.070,118.597 324.490,118.425 324.490 C 117.963 324.490,113.605 319.563,113.605 319.041 C 113.605 318.889,113.458 318.713,113.277 318.651 C 113.096 318.588,112.525 317.466,112.007 316.156 L 111.067 313.776 110.965 283.911 L 110.863 254.046 111.582 253.128 C 113.439 250.760,127.985 235.714,128.418 235.714 C 128.612 235.714,143.411 220.818,151.190 212.791 C 153.997 209.895,156.393 207.516,156.516 207.505 C 156.751 207.482,175.170 189.118,175.170 188.906 C 175.170 188.838,176.919 187.021,179.057 184.867 C 181.217 182.691,183.446 180.082,184.074 178.996 C 184.696 177.921,185.386 176.735,185.609 176.361 C 188.387 171.692,187.887 165.845,184.274 160.748 C 183.756 160.019,183.333 159.230,183.333 158.996 C 183.333 158.763,182.338 157.552,181.122 156.305 C 179.906 155.059,178.912 153.896,178.912 153.720 C 178.912 153.545,178.700 153.401,178.441 153.401 C 177.879 153.401,175.170 150.764,175.169 150.215 C 175.169 150.003,174.496 149.372,173.674 148.812 C 172.852 148.253,171.833 147.289,171.409 146.671 C 170.986 146.053,170.168 145.212,169.593 144.802 C 168.215 143.821,167.347 142.938,167.347 142.517 C 167.347 142.330,167.194 142.177,167.007 142.177 C 166.820 142.177,166.667 141.960,166.667 141.695 C 166.667 141.430,166.505 141.159,166.307 141.093 C 165.829 140.934,161.757 137.246,160.228 135.587 C 157.757 132.906,151.922 127.211,151.646 127.211 C 151.489 127.211,151.361 127.035,151.361 126.820 C 151.361 126.313,134.226 109.184,133.719 109.184 C 133.507 109.184,133.333 109.055,133.333 108.898 C 133.333 108.486,125.583 100.680,125.174 100.680 C 124.985 100.680,124.830 100.551,124.830 100.393 C 124.830 100.235,123.605 98.843,122.109 97.300 C 120.612 95.756,119.388 94.355,119.388 94.185 C 119.388 94.016,119.249 93.878,119.079 93.878 C 118.744 93.878,115.646 90.965,115.646 90.649 C 115.646 90.544,114.814 89.683,113.797 88.736 C 110.700 85.854,110.883 87.928,110.892 55.807 C 110.897 40.360,111.037 27.185,111.203 26.531 C 112.644 20.862,113.246 19.787,117.196 15.836 C 119.668 13.362,121.929 11.905,123.292 11.905 C 123.721 11.905,124.587 11.681,125.216 11.408 C 126.857 10.695,130.539 10.770,133.551 11.577 " stroke="none" fill="#9ca4a5" fill-rule="evenodd"></path><path id="path2" d="M226.871 11.736 C 221.028 12.975,222.026 12.473,218.144 16.126 C 216.770 17.418,215.646 18.599,215.646 18.750 C 215.646 18.901,215.121 19.550,214.480 20.191 C 213.793 20.878,213.156 21.966,212.930 22.838 C 212.718 23.653,212.374 24.779,212.165 25.340 C 211.902 26.045,211.723 34.983,211.585 54.252 L 211.387 82.143 212.496 83.719 C 213.106 84.586,213.605 85.526,213.605 85.808 C 213.605 86.090,213.954 86.408,214.381 86.515 C 215.382 86.767,217.195 88.404,217.476 89.310 C 217.596 89.698,218.267 90.340,218.966 90.736 C 219.666 91.133,220.544 91.884,220.918 92.405 C 221.293 92.926,221.943 93.662,222.364 94.040 C 224.463 95.924,225.615 97.181,225.881 97.874 C 226.042 98.295,226.410 98.639,226.698 98.639 C 227.331 98.639,229.592 100.896,229.592 101.527 C 229.592 101.774,230.261 102.368,231.078 102.847 C 231.985 103.379,232.788 104.190,233.139 104.929 C 233.455 105.594,234.281 106.497,234.974 106.935 C 236.329 107.791,237.009 108.496,237.578 109.638 C 237.777 110.036,238.286 110.534,238.710 110.745 C 239.874 111.325,241.055 112.539,241.498 113.609 C 241.720 114.145,242.251 114.656,242.703 114.769 C 243.620 115.000,245.918 117.227,245.918 117.886 C 245.918 118.126,246.257 118.429,246.671 118.560 C 247.656 118.873,249.227 120.461,249.649 121.570 C 249.833 122.053,250.189 122.449,250.441 122.449 C 251.091 122.449,252.874 124.135,253.497 125.340 C 253.788 125.901,254.620 126.722,255.347 127.165 C 256.074 127.607,256.967 128.524,257.331 129.202 C 257.695 129.880,258.407 130.632,258.913 130.875 C 259.911 131.352,261.905 133.584,261.905 134.224 C 261.905 134.442,262.287 134.716,262.755 134.834 C 263.223 134.951,263.605 135.197,263.605 135.381 C 263.605 135.564,263.779 135.714,263.991 135.714 C 264.472 135.714,265.559 136.944,265.829 137.796 C 265.941 138.147,266.220 138.435,266.450 138.435 C 267.066 138.435,269.728 141.019,269.728 141.617 C 269.728 141.900,270.034 142.228,270.408 142.347 C 270.782 142.466,271.088 142.706,271.088 142.880 C 271.088 143.055,271.241 143.197,271.429 143.197 C 271.885 143.197,272.903 144.242,273.621 145.446 C 273.943 145.987,274.792 146.795,275.507 147.243 C 276.240 147.701,277.082 148.628,277.435 149.365 C 277.779 150.084,278.253 150.674,278.486 150.676 C 279.088 150.682,281.633 153.298,281.633 153.912 C 281.633 154.192,281.824 154.422,282.058 154.422 C 282.625 154.423,285.374 156.882,285.374 157.389 C 285.374 157.609,285.920 158.205,286.587 158.714 C 288.480 160.158,288.991 161.542,289.262 165.969 C 289.393 168.111,289.517 169.948,289.538 170.051 C 289.893 171.853,287.889 179.292,286.900 179.847 C 286.449 180.099,284.354 182.826,284.354 183.160 C 284.354 183.459,283.008 184.694,282.683 184.694 C 282.403 184.694,281.664 185.510,280.003 187.654 C 279.683 188.067,279.254 188.411,279.049 188.420 C 278.511 188.442,277.500 189.434,276.526 190.893 C 276.061 191.590,275.172 192.432,274.551 192.764 C 273.931 193.096,273.118 193.903,272.747 194.558 C 272.375 195.213,271.459 196.185,270.712 196.718 C 269.964 197.252,268.979 198.281,268.522 199.005 C 268.065 199.729,267.232 200.558,266.672 200.848 C 266.111 201.138,265.384 201.792,265.055 202.303 C 264.726 202.814,262.773 204.928,260.715 207.002 C 258.657 209.075,256.539 211.256,256.009 211.849 C 255.478 212.441,254.829 212.925,254.565 212.925 C 254.302 212.925,253.624 213.563,253.060 214.342 C 252.495 215.121,251.511 216.114,250.873 216.547 C 250.235 216.981,249.274 217.989,248.738 218.787 C 248.203 219.585,247.351 220.437,246.844 220.680 C 246.338 220.924,245.655 221.501,245.326 221.962 C 244.294 223.410,243.409 224.323,242.123 225.265 C 241.439 225.767,240.683 226.619,240.444 227.160 C 240.205 227.701,239.387 228.519,238.627 228.980 C 237.867 229.440,237.015 230.259,236.735 230.799 C 236.103 232.015,235.444 232.687,234.296 233.286 C 233.808 233.540,233.200 234.148,232.946 234.636 C 232.415 235.655,231.422 236.735,231.016 236.735 C 230.685 236.735,228.912 238.542,228.912 238.879 C 228.912 239.241,227.596 240.476,227.211 240.476 C 227.024 240.476,226.871 240.629,226.871 240.816 C 226.871 241.003,226.718 241.156,226.531 241.156 C 226.063 241.156,225.098 242.180,224.517 243.293 C 224.252 243.801,223.831 244.218,223.582 244.218 C 222.962 244.218,220.408 246.818,220.408 247.449 C 220.408 247.730,220.249 247.959,220.054 247.959 C 219.859 247.959,219.514 248.114,219.288 248.303 C 219.062 248.492,218.461 248.959,217.953 249.340 C 217.444 249.721,216.832 250.435,216.592 250.927 C 216.353 251.419,215.495 252.292,214.686 252.867 C 213.689 253.575,212.922 254.524,212.305 255.811 L 211.395 257.711 211.594 285.063 C 211.789 311.726,211.813 312.482,212.530 315.094 C 212.934 316.568,213.265 317.849,213.265 317.941 C 213.265 318.033,213.929 318.745,214.741 319.523 C 215.553 320.300,216.433 321.386,216.697 321.936 C 216.961 322.485,217.636 323.170,218.197 323.457 C 218.759 323.744,219.269 324.094,219.331 324.235 C 219.393 324.375,219.651 324.490,219.903 324.490 C 220.155 324.490,220.674 324.928,221.055 325.463 C 223.101 328.336,236.051 328.212,238.973 325.290 C 239.572 324.691,240.667 323.893,241.407 323.515 C 242.148 323.137,243.016 322.427,243.338 321.936 C 244.102 320.769,244.986 319.897,245.670 319.635 C 245.972 319.519,246.802 318.665,247.515 317.738 C 248.227 316.811,249.060 315.979,249.367 315.891 C 249.673 315.802,250.515 314.954,251.238 314.007 C 251.960 313.059,252.708 312.275,252.900 312.264 C 253.481 312.232,256.120 309.513,256.125 308.943 C 256.126 308.795,256.669 308.304,257.331 307.854 C 257.993 307.403,258.870 306.563,259.280 305.987 C 260.261 304.609,261.144 303.741,261.565 303.741 C 261.753 303.741,262.440 302.998,263.093 302.089 C 263.746 301.180,264.889 300.015,265.633 299.499 C 266.377 298.983,267.065 298.311,267.163 298.005 C 267.260 297.699,267.908 296.990,268.602 296.429 C 269.296 295.867,270.177 295.066,270.561 294.649 C 270.945 294.231,271.784 293.389,272.427 292.778 C 274.497 290.810,275.665 289.594,276.361 288.680 C 276.735 288.189,277.216 287.779,277.431 287.771 C 277.811 287.755,279.279 286.191,280.244 284.772 C 280.510 284.382,280.990 283.994,281.312 283.910 C 281.634 283.826,282.488 283.002,283.210 282.079 C 283.933 281.156,285.115 279.978,285.837 279.462 C 286.560 278.946,287.228 278.228,287.323 277.867 C 287.417 277.506,287.630 277.211,287.795 277.211 C 287.960 277.211,288.095 276.981,288.095 276.701 C 288.095 276.420,288.325 276.190,288.605 276.190 C 288.886 276.190,289.116 276.074,289.116 275.931 C 289.116 275.788,289.460 275.520,289.881 275.336 C 290.302 275.151,290.797 274.656,290.982 274.235 C 291.167 273.814,291.435 273.469,291.577 273.469 C 291.720 273.469,291.840 273.278,291.844 273.044 C 291.848 272.810,292.514 272.175,293.323 271.632 C 294.132 271.089,295.232 270.002,295.768 269.217 C 296.303 268.433,297.130 267.617,297.605 267.404 C 298.080 267.192,298.922 266.350,299.476 265.534 C 300.029 264.717,300.922 263.854,301.459 263.616 C 301.996 263.379,302.886 262.562,303.438 261.801 C 303.989 261.040,304.764 260.178,305.160 259.886 C 306.027 259.245,307.060 258.250,308.027 257.124 C 308.420 256.667,309.454 255.711,310.323 255.000 C 311.193 254.289,311.906 253.524,311.908 253.299 C 311.910 253.075,312.255 252.622,312.674 252.293 C 315.252 250.268,315.646 249.894,315.646 249.470 C 315.646 249.212,316.488 248.379,317.517 247.619 C 318.546 246.859,319.388 246.064,319.388 245.852 C 319.388 245.640,320.612 244.256,322.109 242.775 C 323.605 241.295,324.830 239.942,324.830 239.769 C 324.830 239.597,325.021 239.456,325.255 239.457 C 325.489 239.458,326.535 238.578,327.579 237.501 C 328.623 236.425,329.924 235.148,330.470 234.664 C 331.016 234.181,331.769 233.415,332.143 232.964 C 332.518 232.512,333.398 231.714,334.099 231.190 C 334.800 230.666,335.374 230.079,335.374 229.886 C 335.374 229.692,335.939 229.049,336.630 228.457 C 338.211 227.102,339.007 226.306,340.362 224.725 C 340.954 224.035,341.600 223.469,341.797 223.469 C 341.994 223.469,342.777 222.628,343.537 221.599 C 344.298 220.570,345.136 219.728,345.402 219.728 C 345.915 219.728,347.619 217.700,347.619 217.088 C 347.619 216.887,347.758 216.672,347.929 216.610 C 348.590 216.368,351.361 213.855,351.374 213.485 C 351.382 213.271,352.141 212.501,353.062 211.774 C 353.983 211.048,355.086 209.944,355.512 209.322 C 355.938 208.699,356.671 207.996,357.140 207.759 C 358.165 207.240,359.864 205.475,359.864 204.928 C 359.864 204.713,360.285 204.320,360.799 204.054 C 361.963 203.454,362.589 202.862,363.582 201.427 C 364.009 200.808,364.962 199.922,365.699 199.456 C 366.436 198.991,367.135 198.349,367.251 198.030 C 367.513 197.312,368.529 196.289,369.983 195.279 C 370.591 194.857,371.088 194.288,371.088 194.014 C 371.088 193.740,371.318 193.428,371.599 193.320 C 371.879 193.213,372.109 192.911,372.109 192.651 C 372.109 192.390,372.338 192.177,372.619 192.177 C 372.900 192.177,373.129 192.048,373.129 191.891 C 373.129 191.734,373.501 191.437,373.955 191.230 C 374.409 191.023,375.047 190.292,375.373 189.605 C 375.699 188.918,376.577 187.913,377.325 187.372 C 378.072 186.830,379.036 185.869,379.467 185.235 C 379.897 184.602,380.774 183.759,381.415 183.363 C 382.056 182.967,382.848 182.071,383.176 181.372 C 383.503 180.674,384.361 179.552,385.083 178.879 C 385.804 178.206,386.395 177.502,386.395 177.315 C 386.395 177.128,386.658 176.454,386.980 175.818 C 388.313 173.180,387.487 161.224,385.972 161.224 C 385.483 161.224,383.741 159.252,383.466 158.387 C 383.347 158.009,381.546 155.997,379.464 153.915 C 377.383 151.834,375.363 149.757,374.976 149.300 C 374.588 148.843,373.784 148.088,373.190 147.623 C 372.595 147.157,372.102 146.621,372.094 146.432 C 372.087 146.243,371.596 145.706,371.005 145.238 C 369.592 144.120,368.286 142.851,367.672 142.000 C 367.400 141.622,366.559 140.832,365.805 140.244 C 365.050 139.656,364.232 138.817,363.988 138.380 C 363.743 137.943,362.784 137.002,361.856 136.290 C 360.927 135.578,360.069 134.736,359.948 134.419 C 359.827 134.103,359.351 133.537,358.892 133.163 C 357.833 132.301,356.165 130.673,355.227 129.583 C 354.828 129.120,353.987 128.274,353.357 127.702 C 352.726 127.131,351.638 126.059,350.937 125.321 C 350.237 124.583,349.206 123.597,348.647 123.129 C 348.088 122.662,347.628 122.160,347.625 122.015 C 347.618 121.685,344.482 118.721,344.133 118.713 C 343.992 118.710,343.878 118.541,343.878 118.338 C 343.878 118.135,343.317 117.485,342.633 116.893 C 341.948 116.301,341.145 115.527,340.847 115.174 C 340.550 114.821,339.702 113.979,338.964 113.303 C 338.227 112.628,337.155 111.559,336.583 110.929 C 336.012 110.299,335.170 109.457,334.712 109.058 C 333.533 108.031,332.644 107.122,331.407 105.678 C 330.815 104.987,330.193 104.422,330.025 104.422 C 329.656 104.422,327.891 102.624,327.891 102.248 C 327.891 102.102,327.330 101.498,326.644 100.906 C 325.957 100.314,325.154 99.554,324.858 99.217 C 324.562 98.880,323.723 98.038,322.993 97.346 C 321.249 95.693,320.451 94.864,319.218 93.420 C 318.656 92.763,318.006 92.214,317.772 92.201 C 317.538 92.188,317.347 92.059,317.347 91.914 C 317.347 91.537,314.453 88.438,314.085 88.421 C 313.915 88.413,313.393 87.922,312.925 87.329 C 312.457 86.737,311.482 85.710,310.758 85.048 C 310.034 84.385,309.192 83.550,308.887 83.191 C 307.953 82.091,306.288 80.486,305.157 79.596 C 304.566 79.130,304.082 78.593,304.082 78.401 C 304.082 78.210,303.589 77.673,302.987 77.207 C 302.385 76.742,301.428 75.850,300.861 75.226 C 300.294 74.602,299.218 73.491,298.469 72.757 C 296.681 71.003,296.798 71.122,295.309 69.558 C 294.597 68.810,293.530 67.815,292.940 67.347 C 292.349 66.879,291.859 66.359,291.851 66.190 C 291.833 65.794,288.800 62.925,288.400 62.925 C 288.232 62.925,288.095 62.748,288.095 62.531 C 288.095 62.109,285.055 59.184,284.616 59.184 C 284.472 59.184,284.354 59.037,284.354 58.858 C 284.354 58.594,277.346 51.489,273.223 47.573 C 272.704 47.080,271.632 46.009,270.841 45.192 C 270.051 44.376,269.166 43.478,268.875 43.197 C 268.585 42.917,263.313 37.636,257.160 31.463 C 251.008 25.289,245.617 19.921,245.181 19.533 C 244.745 19.146,244.007 18.342,243.541 17.748 C 243.076 17.153,242.536 16.667,242.341 16.667 C 241.865 16.667,239.796 14.754,239.796 14.314 C 239.796 13.840,237.894 12.879,236.224 12.509 C 230.693 11.284,229.476 11.183,226.871 11.736 " stroke="none" fill="#fae345" fill-rule="evenodd"></path></g></svg>