<svg fill='#5664d2' xmlns="http://www.w3.org/2000/svg" xmlns:xlink="http://www.w3.org/1999/xlink" version="1.1" id="Laag_1" x="0px" y="0px" style="enable-background:new 0 0 264.58 136.46;" xml:space="preserve" viewBox="163.09 16.35 41.34 25.01">
<g>
	<polygon class="st2" points="163.09,34.77 184.91,25.71 170.95,41.36 170.93,34.55  "/>
	<g>
		<path class="st2" d="M177.36,22.07c5.13,1.52,10.03,0.27,10.03,0.27s-3.42-3.72-8.56-5.24c-5.13-1.52-10.03-0.27-10.03-0.27    S172.23,20.55,177.36,22.07"/>
		<path class="st2" d="M178.41,26.8c5.24-1.07,8.98-4.47,8.98-4.47s-4.77-1.67-10.01-0.61c-5.24,1.07-8.98,4.47-8.98,4.47    S173.17,27.86,178.41,26.8"/>
		<path class="st2" d="M183.4,31.5c0,0,11.1,7.57,13.14,8.95c2.12,1.44,5.34-0.02,6.79-1.72c2.56-3-0.01-5.57-1.02-6.24    c-1.6-1.06-13.28-9.19-13.28-9.19L183.4,31.5z"/>
		<path class="st2" d="M190.28,30.09c1.91,0,3.46-1.33,3.46-1.33s-1.55-1.33-3.46-1.33c-1.91,0-3.46,1.33-3.46,1.33    S188.37,30.09,190.28,30.09"/>
	</g>
</g>
</svg>
